# xmcd CD database file
#
# Track frame offsets:
#	150
#	24572
#	42812
#	65795
#	80950
#	100592
#	123207
#	133850
#	142245
#	178242
#	200320
#	224637
#	250495
#	272930
#	278192
#	298182
#	314325
#
# Disc length: 4382 seconds
#
# Revision: 0
# Processed by: cddbd v1.4PL0 Copyright (c) Steve Scherf et al.
# Submitted via: CDex 1.50Beta7
#
DISCID=1f111c11
DTITLE=Marcel Worms - More New Blues For Piano
DYEAR=2001
DGENRE=Blues
TTITLE0=Silly Blooze (1999)
TTITLE1=Warum Blues (2001)
TTITLE2=A Sad Smile Blues (2001)
TTITLE3=Tango Blues (1999)
TTITLE4=Buddy's Bitonal Blues II (2000)
TTITLE5=All That Blues (2000)
TTITLE6=Honky Tonk Blues (1999)
TTITLE7=Off and On Situation Blues (1999)
TTITLE8=Ancient City Blues (1999)
TTITLE9=Growing Worm (2001)
TTITLE10=Uncle Mendel's Ukrainian Blues (1999)
TTITLE11=Drive Blues (2000)
TTITLE12=Blues for Marcel (2000)
TTITLE13=Ubu Blues (2000)
TTITLE14=Cradle Rockin' Blues (2000)
TTITLE15=Nganda Blues (2000)
TTITLE16=Who's Got the Blues¿ (1987)
EXTD=YEAR: 2001
EXTT0=
EXTT1=
EXTT2=
EXTT3=
EXTT4=
EXTT5=
EXTT6=
EXTT7=
EXTT8=
EXTT9=
EXTT10=
EXTT11=
EXTT12=
EXTT13=
EXTT14=
EXTT15=
EXTT16=
PLAYORDER=
